REM DIRINDEX 1\2,1\3,1\4,1\6,1\5\7,1\5\8
REM DIRNAME folder01,folder02,folder03,folder04,folder05,folder06,folder07,folder08
TITLE ""
FILE "DB4500_5th_1A_09.mp3" MP3
  TRACK 01 AUDIO
    TITLE "0:"
    INDEX 01 00:00:00
  TRACK 02 AUDIO
    TITLE "2:cjc114_0191"
    INDEX 01 00:00:05
  TRACK 03 AUDIO
    TITLE "0:"
    INDEX 01 00:01:36
  TRACK 04 AUDIO
    TITLE "3:cjc114_0192"
    INDEX 01 00:01:58
  TRACK 05 AUDIO
    TITLE "0:"
    INDEX 01 00:02:69
  TRACK 06 AUDIO
    TITLE "4:cjc114_0193"
    INDEX 01 00:03:17
  TRACK 07 AUDIO
    TITLE "0:"
    INDEX 01 00:06:31
  TRACK 08 AUDIO
    TITLE "2:cjc114_0194"
    INDEX 01 00:07:05
  TRACK 09 AUDIO
    TITLE "0:"
    INDEX 01 00:08:11
  TRACK 10 AUDIO
    TITLE "3:cjc114_0195"
    INDEX 01 00:08:36
  TRACK 11 AUDIO
    TITLE "0:"
    INDEX 01 00:09:44
  TRACK 12 AUDIO
    TITLE "4:cjc114_0196"
    INDEX 01 00:09:69
  TRACK 13 AUDIO
    TITLE "0:"
    INDEX 01 00:13:30
  TRACK 14 AUDIO
    TITLE "2:cjc114_0197"
    INDEX 01 00:14:04
  TRACK 15 AUDIO
    TITLE "0:"
    INDEX 01 00:15:13
  TRACK 16 AUDIO
    TITLE "3:cjc114_0198"
    INDEX 01 00:15:36
  TRACK 17 AUDIO
    TITLE "0:"
    INDEX 01 00:16:61
  TRACK 18 AUDIO
    TITLE "4:cjc114_0199"
    INDEX 01 00:17:12
  TRACK 19 AUDIO
    TITLE "0:"
    INDEX 01 00:21:06
  TRACK 20 AUDIO
    TITLE "2:cjc114_0200"
    INDEX 01 00:21:57
  TRACK 21 AUDIO
    TITLE "0:"
    INDEX 01 00:22:74
  TRACK 22 AUDIO
    TITLE "3:cjc114_0201"
    INDEX 01 00:23:22
  TRACK 23 AUDIO
    TITLE "0:"
    INDEX 01 00:24:45
  TRACK 24 AUDIO
    TITLE "4:cjc114_0202"
    INDEX 01 00:24:72
  TRACK 25 AUDIO
    TITLE "0:"
    INDEX 01 00:29:11
  TRACK 26 AUDIO
    TITLE "2:cjc114_0203"
    INDEX 01 00:29:60
  TRACK 27 AUDIO
    TITLE "0:"
    INDEX 01 00:30:63
  TRACK 28 AUDIO
    TITLE "3:cjc114_0204"
    INDEX 01 00:31:14
  TRACK 29 AUDIO
    TITLE "0:"
    INDEX 01 00:32:25
  TRACK 30 AUDIO
    TITLE "4:cjc114_0205"
    INDEX 01 00:32:52
  TRACK 31 AUDIO
    TITLE "0:"
    INDEX 01 00:35:43
  TRACK 32 AUDIO
    TITLE "2:cjc114_0206"
    INDEX 01 00:36:19
  TRACK 33 AUDIO
    TITLE "0:"
    INDEX 01 00:37:26
  TRACK 34 AUDIO
    TITLE "3:cjc114_0207"
    INDEX 01 00:37:50
  TRACK 35 AUDIO
    TITLE "0:"
    INDEX 01 00:38:73
  TRACK 36 AUDIO
    TITLE "4:cjc114_0208"
    INDEX 01 00:39:21
  TRACK 37 AUDIO
    TITLE "0:"
    INDEX 01 00:42:66
  TRACK 38 AUDIO
    TITLE "2:cjc114_0209"
    INDEX 01 00:43:42
  TRACK 39 AUDIO
    TITLE "0:"
    INDEX 01 00:46:23
  TRACK 40 AUDIO
    TITLE "3:cjc114_0210"
    INDEX 01 00:46:49
  TRACK 41 AUDIO
    TITLE "0:"
    INDEX 01 00:47:62
  TRACK 42 AUDIO
    TITLE "4:cjc114_0211"
    INDEX 01 00:48:12
  TRACK 43 AUDIO
    TITLE "0:"
    INDEX 01 00:50:19
  TRACK 44 AUDIO
    TITLE "4:cjc114_0212"
    INDEX 01 00:50:72
  TRACK 45 AUDIO
    TITLE "0:"
    INDEX 01 00:54:07
  TRACK 46 AUDIO
    TITLE "2:cjc114_0213"
    INDEX 01 00:54:56
  TRACK 47 AUDIO
    TITLE "0:"
    INDEX 01 00:56:08
  TRACK 48 AUDIO
    TITLE "3:cjc114_0214"
    INDEX 01 00:56:31
  TRACK 49 AUDIO
    TITLE "0:"
    INDEX 01 00:57:35
  TRACK 50 AUDIO
    TITLE "4:cjc114_0215"
    INDEX 01 00:57:60
  TRACK 51 AUDIO
    TITLE "0:"
    INDEX 01 01:02:32
  TRACK 52 AUDIO
    TITLE "2:cjc114_0216"
    INDEX 01 01:03:06
  TRACK 53 AUDIO
    TITLE "0:"
    INDEX 01 01:04:13
  TRACK 54 AUDIO
    TITLE "3:cjc114_0217"
    INDEX 01 01:04:39
  TRACK 55 AUDIO
    TITLE "0:"
    INDEX 01 01:05:60
  TRACK 56 AUDIO
    TITLE "4:cjc114_0218"
    INDEX 01 01:06:08
  TRACK 57 AUDIO
    TITLE "0:"
    INDEX 01 01:10:67
  TRACK 58 AUDIO
    TITLE "2:cjc114_0219"
    INDEX 01 01:11:41
  TRACK 59 AUDIO
    TITLE "0:"
    INDEX 01 01:12:40
  TRACK 60 AUDIO
    TITLE "3:cjc114_0220"
    INDEX 01 01:12:68
  TRACK 61 AUDIO
    TITLE "0:"
    INDEX 01 01:13:59
  TRACK 62 AUDIO
    TITLE "4:cjc114_0221"
    INDEX 01 01:14:14
  TRACK 63 AUDIO
    TITLE "0:"
    INDEX 01 01:16:38
  TRACK 64 AUDIO
    TITLE "4:cjc114_0222"
    INDEX 01 01:17:10
  TRACK 65 AUDIO
    TITLE "0:"
    INDEX 01 01:19:40
  TRACK 66 AUDIO
    TITLE "2:cjc114_0223"
    INDEX 01 01:20:18
  TRACK 67 AUDIO
    TITLE "0:"
    INDEX 01 01:21:04
  TRACK 68 AUDIO
    TITLE "3:cjc114_0224"
    INDEX 01 01:21:33
  TRACK 69 AUDIO
    TITLE "0:"
    INDEX 01 01:22:60
  TRACK 70 AUDIO
    TITLE "4:cjc114_0225"
    INDEX 01 01:23:13
  TRACK 71 AUDIO
    TITLE "0:"
    INDEX 01 01:24:71
  TRACK 72 AUDIO
    TITLE "4:cjc114_0226"
    INDEX 01 01:25:31
  TRACK 73 AUDIO
    TITLE "0:"
    INDEX 01 01:27:32
  TRACK 74 AUDIO
    TITLE "2:cjc114_0227"
    INDEX 01 01:28:12
  TRACK 75 AUDIO
    TITLE "0:"
    INDEX 01 01:29:13
  TRACK 76 AUDIO
    TITLE "3:cjc114_0228"
    INDEX 01 01:29:41
  TRACK 77 AUDIO
    TITLE "0:"
    INDEX 01 01:30:42
  TRACK 78 AUDIO
    TITLE "4:cjc114_0229"
    INDEX 01 01:30:69
  TRACK 79 AUDIO
    TITLE "0:"
    INDEX 01 01:32:72
  TRACK 80 AUDIO
    TITLE "4:cjc114_0230"
    INDEX 01 01:33:54
  TRACK 81 AUDIO
    TITLE "0:"
    INDEX 01 01:36:07
  TRACK 82 AUDIO
    TITLE "2:cjc114_0231"
    INDEX 01 01:36:60
  TRACK 83 AUDIO
    TITLE "0:"
    INDEX 01 01:37:56
  TRACK 84 AUDIO
    TITLE "3:cjc114_0232"
    INDEX 01 01:38:10
  TRACK 85 AUDIO
    TITLE "0:"
    INDEX 01 01:39:00
  TRACK 86 AUDIO
    TITLE "4:cjc114_0233"
    INDEX 01 01:39:27
  TRACK 87 AUDIO
    TITLE "0:"
    INDEX 01 01:41:69
  TRACK 88 AUDIO
    TITLE "4:cjc114_0234"
    INDEX 01 01:42:30
  TRACK 89 AUDIO
    TITLE "0:"
    INDEX 01 01:45:14
